<svg width="128" height="149" viewBox="0 0 128 149" fill="none" xmlns="http://www.w3.org/2000/svg">
<path fill-rule="evenodd" clip-rule="evenodd" d="M95.9869 18.5399L63.9954 0C54.6561 11.3148 47.6374 24.2086 43.1659 37.909C67.7765 43.0666 89.523 56.0513 105.689 74.1708C115.277 84.9176 122.896 97.4593 127.99 111.228V37.0797H127.978L95.9983 18.5399H95.9869Z" fill="white"/>
<path fill-rule="evenodd" clip-rule="evenodd" d="M54.27 13.7036C54.3385 13.5896 54.4183 13.4755 54.4868 13.3615L54.27 13.7036Z" fill="white"/>
<path fill-rule="evenodd" clip-rule="evenodd" d="M43.1308 110.376C29.0708 113.341 14.4335 113.693 0 111.228L64.0057 148.308L128 111.228C122.906 97.448 115.287 84.9063 105.699 74.1709C88.9446 92.9834 66.8584 105.389 43.1534 110.376H43.1308Z" fill="white"/>
<path fill-rule="evenodd" clip-rule="evenodd" d="M0 37.0797V111.239C14.4335 113.704 29.0708 113.341 43.1308 110.387C35.2744 86.4171 35.614 61.027 43.1534 37.9204C47.6363 24.22 54.6437 11.3261 63.983 0.011347L0 37.0797Z" fill="white"/>
</svg>
