<svg width="16" height="16" viewBox="0 0 16 16" fill="none" xmlns="http://www.w3.org/2000/svg">
<rect width="16" height="16" fill="black"/>
<path fill-rule="evenodd" clip-rule="evenodd" d="M9.77343 5.27699L8.20458 4.3678C7.74658 4.92267 7.40239 5.55498 7.18311 6.22684C8.39 6.47976 9.45644 7.11653 10.2492 8.0051C10.7194 8.53212 11.093 9.14716 11.3428 9.82236V6.18617H11.3423L9.77398 5.27699H9.77343Z" fill="white"/>
<path opacity="0.3" fill-rule="evenodd" clip-rule="evenodd" d="M7.72766 5.03985C7.73102 5.03426 7.73493 5.02866 7.73829 5.02307L7.72766 5.03985Z" fill="white"/>
<path fill-rule="evenodd" clip-rule="evenodd" d="M7.18152 9.78073C6.49203 9.92613 5.77422 9.9434 5.06641 9.82251L6.63581 10.7317L8.20522 11.6409L9.77407 10.7317L11.3435 9.82251C11.0937 9.14675 10.72 8.53171 10.2498 8.00525C9.42821 8.92781 8.34511 9.53616 7.18263 9.78073H7.18152Z" fill="white"/>
<path fill-rule="evenodd" clip-rule="evenodd" d="M5.06641 6.1861V9.82285C5.77422 9.94374 6.49203 9.92591 7.18152 9.78107C6.79625 8.60559 6.8129 7.36047 7.18263 6.22733C7.40247 5.55547 7.74611 4.92316 8.20411 4.36829L6.6347 5.27747L5.06641 6.1861Z" fill="white"/>
</svg>
