<svg width="16" height="16" viewBox="0 0 16 16" fill="none" xmlns="http://www.w3.org/2000/svg">
<circle cx="8" cy="8" r="8" fill="black"/>
<path fill-rule="evenodd" clip-rule="evenodd" d="M9.87182 4.74878L8.00872 3.66199C7.46481 4.32524 7.05607 5.08108 6.79565 5.88418C8.22889 6.1865 9.49537 6.94766 10.4368 8.00983C10.9952 8.63977 11.4389 9.37498 11.7356 10.1821V5.83557H11.735L9.87248 4.74878H9.87182Z" fill="white"/>
<path fill-rule="evenodd" clip-rule="evenodd" d="M6.79359 10.1322C5.97477 10.306 5.12234 10.3267 4.28174 10.1821L6.14553 11.2689L8.0093 12.3557L9.87241 11.2689L11.7362 10.1821C11.4395 9.37436 10.9958 8.63919 10.4374 8.00989C9.4617 9.11267 8.17543 9.83985 6.79492 10.1322H6.79359Z" fill="white"/>
<path fill-rule="evenodd" clip-rule="evenodd" d="M4.28174 5.8359V10.1831C5.12234 10.3275 5.97477 10.3063 6.79359 10.1331C6.33606 8.72802 6.35583 7.23966 6.79492 5.88518C7.05599 5.08205 7.46407 4.32624 8.00798 3.66296L6.14421 4.74975L4.28174 5.8359Z" fill="white"/>
</svg>
