<svg width="488" height="53" viewBox="0 0 488 53" fill="none" xmlns="http://www.w3.org/2000/svg">
<path d="M79.9784 27.7812L83.4639 24.2013H73.3847V27.7812H79.9784ZM85.8176 13.0971H66.9906V39.2959H85.8176V35.3969H71.0976V16.9962H85.8176V13.0971Z" fill="black"/>
<path d="M290.43 27.7812L293.915 24.2013H283.835V27.7812H290.43ZM296.268 13.0971H277.442V39.2959H296.268V35.3969H281.549V16.9962H296.268V13.0971Z" fill="black"/>
<path d="M98.4057 12.157H102.832L103.201 12.3464L110.026 21.4394L116.851 12.3464L117.22 12.157H121.647L121.831 12.3464L112.424 24.66L122.937 38.489L122.754 38.6785H118.327L117.957 38.489L110.026 27.8805L102.095 38.489L101.726 38.6785H97.2987L97.1143 38.489L107.628 24.66L98.2208 12.3464L98.4057 12.157Z" fill="black"/>
<path d="M134.544 12.157H154.65L154.835 12.3464L140.262 34.8897H154.835L155.018 35.117V38.489L154.835 38.6785H133.438L133.253 38.489L147.825 15.9458H134.544L134.36 15.7563V12.3464L134.544 12.157Z" fill="black"/>
<path d="M181.781 11.5919C189.307 11.5919 195.431 17.8054 195.431 25.4209C195.431 33.0363 189.307 39.2501 181.781 39.2501C174.255 39.2501 168.131 33.0363 168.131 25.4209C168.131 17.8054 174.255 11.5919 181.781 11.5919ZM181.781 15.57C176.579 15.57 172.373 19.965 172.373 25.4209C172.373 30.8767 176.579 35.2718 181.781 35.2718C186.983 35.2718 191.188 30.8767 191.188 25.4209C191.188 19.965 186.983 15.57 181.781 15.57Z" fill="black"/>
<path d="M404.988 11.5919C412.514 11.5919 418.637 17.8054 418.637 25.4209C418.637 33.0363 412.514 39.2501 404.988 39.2501C397.462 39.2501 391.338 33.0363 391.338 25.4209C391.338 17.8054 397.462 11.5919 404.988 11.5919ZM404.988 15.57C399.786 15.57 395.58 19.965 395.58 25.4209C395.58 30.8767 399.786 35.2718 404.988 35.2718C410.189 35.2718 414.395 30.8767 414.395 25.4209C414.395 19.965 410.189 15.57 404.988 15.57Z" fill="black"/>
<path d="M467.157 12.157H470.477L470.662 12.3464V21.4394L481.175 12.3464L481.544 12.157H486.341L486.524 12.3464L473.428 23.5233L488 38.489L487.816 38.6785H483.02L482.651 38.489L470.662 25.986V38.489L470.477 38.6785H467.157L466.972 38.489V12.3464L467.157 12.157Z" fill="black"/>
<path d="M310.614 12.157H330.905L331.09 12.3464V15.7563L330.905 15.9458H322.605V38.489L322.42 38.6785H319.1L318.915 38.489V15.9458H310.614L310.431 15.7563V12.3464L310.614 12.157Z" fill="black"/>
<path d="M343.889 12.157H347.579L347.763 12.3464L353.665 32.427L359.383 12.7253L359.568 12.5359H363.257L363.442 12.7253L369.159 32.427L375.062 12.3464L375.247 12.157H378.936L379.12 12.3464L371.189 38.489L371.005 38.6785H367.5L367.315 38.489L361.412 18.9768L355.51 38.489L355.326 38.6785H351.821L351.636 38.489L343.705 12.3464L343.889 12.157Z" fill="black"/>
<path d="M255.178 34.3808L238.728 13.0971H234.921V39.2959H238.728V18.0351L255.178 39.2959H258.962V13.0971H255.178V34.3808Z" fill="black"/>
<path d="M450.258 27.3276C450.578 27.0689 450.853 26.7867 451.083 26.5279C452.342 25.0696 453.029 23.1173 453.029 21.0709C453.029 17.0957 450.35 13.0971 445.196 13.0971H430.494V40.0763H434.409V16.4372H445.196C448.357 16.4372 449.754 18.7658 449.754 21.0474C449.754 22.2705 449.342 23.4466 448.632 24.2698C447.877 25.1401 446.823 25.6341 445.494 25.6812H441.417H435.532V29.0212H443.364L449.8 40.0293H453.877L447.304 28.7625C448.586 28.4567 449.548 27.8922 450.258 27.2806V27.3276Z" fill="black"/>
<path opacity="0.1" fill-rule="evenodd" clip-rule="evenodd" d="M20.5095 39.682C18.3521 39.682 16.2647 39.381 14.2826 38.815C14.5162 41.3236 14.9835 43.8119 15.6845 46.2482C22.9279 44.4542 29.521 40.5489 34.6498 34.9781L34.5406 34.8616C30.6307 37.8879 25.7745 39.682 20.5057 39.682H20.5095Z" fill="black"/>
<path opacity="0.3" fill-rule="evenodd" clip-rule="evenodd" d="M18.6694 4.84492C18.6931 4.80366 18.7206 4.76239 18.7441 4.72113L18.6694 4.84492Z" fill="black"/>
<path fill-rule="evenodd" clip-rule="evenodd" d="M33.0201 6.55017L22.0148 0C18.802 3.99754 16.3876 8.553 14.8494 13.3934C23.3155 15.2156 30.7964 19.8031 36.3574 26.2049C39.656 30.0017 42.2769 34.4327 44.0293 39.2972V13.1004H44.0254L33.024 6.55017H33.0201Z" fill="black"/>
<path fill-rule="evenodd" clip-rule="evenodd" d="M14.8373 38.9947C10.0005 40.0423 4.96523 40.1668 0 39.2959L11.0092 45.8459L22.0183 52.3962L33.0236 45.8459L44.0328 39.2959C42.2804 34.4273 39.6595 29.9963 36.3611 26.2034C30.5975 32.85 22.9996 37.2327 14.8451 38.9947H14.8373Z" fill="black"/>
<path fill-rule="evenodd" clip-rule="evenodd" d="M0 13.104L0 39.3048C4.96522 40.1756 10.0005 40.0472 14.8373 39.0037C12.1346 30.535 12.2515 21.5647 14.8451 13.401C16.3872 8.56055 18.7978 4.00512 22.0105 0.00756836L11.0014 6.55777L0 13.104Z" fill="black"/>
<path opacity="0.3" fill-rule="evenodd" clip-rule="evenodd" d="M6.07168 22.8133C4.6308 28.348 4.31147 34.1798 5.15262 39.847C8.41608 39.9714 11.6678 39.6825 14.8377 38.9962C12.1351 30.5274 12.2519 21.5571 14.8456 13.3934C16.3877 8.553 18.7983 3.99754 22.0111 0C13.911 5.39026 8.4628 13.6221 6.07168 22.8133Z" fill="black"/>
</svg>
