<svg width="488" height="53" viewBox="0 0 488 53" fill="none" xmlns="http://www.w3.org/2000/svg">
<path d="M79.9784 27.7812L83.4639 24.2013H73.3847V27.7812H79.9784ZM85.8176 13.097H66.9906V39.2958H85.8176V35.3968H71.0976V16.9962H85.8176V13.097Z" fill="white"/>
<path d="M290.43 27.7812L293.915 24.2013H283.835V27.7812H290.43ZM296.268 13.097H277.442V39.2958H296.268V35.3968H281.549V16.9962H296.268V13.097Z" fill="white"/>
<path d="M98.4057 12.1569H102.832L103.201 12.3463L110.026 21.4394L116.851 12.3463L117.22 12.1569H121.647L121.831 12.3463L112.424 24.6599L122.937 38.4889L122.754 38.6785H118.327L117.957 38.4889L110.026 27.8804L102.095 38.4889L101.726 38.6785H97.2987L97.1143 38.4889L107.628 24.6599L98.2208 12.3463L98.4057 12.1569Z" fill="white"/>
<path d="M134.544 12.1569H154.65L154.835 12.3463L140.262 34.8896H154.835L155.018 35.117V38.4889L154.835 38.6785H133.438L133.253 38.4889L147.825 15.9457H134.544L134.36 15.7562V12.3463L134.544 12.1569Z" fill="white"/>
<path d="M181.781 11.5919C189.307 11.5919 195.431 17.8055 195.431 25.4209C195.431 33.0364 189.307 39.2501 181.781 39.2501C174.255 39.2501 168.131 33.0364 168.131 25.4209C168.131 17.8055 174.255 11.5919 181.781 11.5919ZM181.781 15.5701C176.579 15.5701 172.373 19.9651 172.373 25.4209C172.373 30.8768 176.579 35.2719 181.781 35.2719C186.983 35.2719 191.188 30.8768 191.188 25.4209C191.188 19.9651 186.983 15.5701 181.781 15.5701Z" fill="white"/>
<path d="M404.988 11.5919C412.514 11.5919 418.637 17.8055 418.637 25.4209C418.637 33.0364 412.514 39.2501 404.988 39.2501C397.462 39.2501 391.338 33.0364 391.338 25.4209C391.338 17.8055 397.462 11.5919 404.988 11.5919ZM404.988 15.5701C399.786 15.5701 395.58 19.9651 395.58 25.4209C395.58 30.8768 399.786 35.2719 404.988 35.2719C410.189 35.2719 414.395 30.8768 414.395 25.4209C414.395 19.9651 410.189 15.5701 404.988 15.5701Z" fill="white"/>
<path d="M467.157 12.1569H470.477L470.662 12.3463V21.4394L481.175 12.3463L481.544 12.1569H486.341L486.524 12.3463L473.428 23.5233L488 38.4889L487.816 38.6785H483.02L482.651 38.4889L470.662 25.9859V38.4889L470.477 38.6785H467.157L466.972 38.4889V12.3463L467.157 12.1569Z" fill="white"/>
<path d="M310.614 12.1569H330.905L331.09 12.3463V15.7562L330.905 15.9457H322.605V38.4889L322.42 38.6785H319.1L318.915 38.4889V15.9457H310.614L310.431 15.7562V12.3463L310.614 12.1569Z" fill="white"/>
<path d="M343.889 12.1569H347.579L347.763 12.3463L353.665 32.427L359.383 12.7252L359.568 12.5358H363.257L363.442 12.7252L369.159 32.427L375.062 12.3463L375.247 12.1569H378.936L379.12 12.3463L371.189 38.4889L371.005 38.6785H367.5L367.315 38.4889L361.412 18.9767L355.51 38.4889L355.326 38.6785H351.821L351.636 38.4889L343.705 12.3463L343.889 12.1569Z" fill="white"/>
<path d="M255.178 34.3808L238.728 13.097H234.921V39.2959H238.728V18.0351L255.178 39.2959H258.962V13.097H255.178V34.3808Z" fill="white"/>
<path d="M450.258 27.3276C450.578 27.0688 450.853 26.7867 451.083 26.5278C452.342 25.0695 453.029 23.1173 453.029 21.0709C453.029 17.0957 450.35 13.097 445.196 13.097H430.494V40.0762H434.409V16.4371H445.196C448.357 16.4371 449.754 18.7657 449.754 21.0473C449.754 22.2705 449.342 23.4466 448.632 24.2698C447.877 25.14 446.823 25.6341 445.494 25.6811H441.417H435.532V29.0212H443.364L449.8 40.0293H453.877L447.304 28.7624C448.586 28.4566 449.548 27.8921 450.258 27.2806V27.3276Z" fill="white"/>
<path opacity="0.1" fill-rule="evenodd" clip-rule="evenodd" d="M20.5095 39.682C18.3521 39.682 16.2647 39.381 14.2826 38.815C14.5162 41.3236 14.9835 43.8119 15.6845 46.2482C22.9279 44.4542 29.521 40.5489 34.6498 34.9781L34.5406 34.8616C30.6307 37.8879 25.7745 39.682 20.5057 39.682H20.5095Z" fill="white"/>
<path opacity="0.3" fill-rule="evenodd" clip-rule="evenodd" d="M18.6694 4.84397C18.693 4.80304 18.7202 4.76212 18.7435 4.72119L18.6694 4.84397Z" fill="white"/>
<path fill-rule="evenodd" clip-rule="evenodd" d="M33.0201 6.55017L22.0148 0C18.802 3.99754 16.3876 8.553 14.8494 13.3934C23.3155 15.2156 30.7964 19.8031 36.3574 26.2049C39.656 30.0017 42.2769 34.4327 44.0293 39.2972V13.1004H44.0254L33.024 6.55017H33.0201Z" fill="white"/>
<path fill-rule="evenodd" clip-rule="evenodd" d="M14.8373 38.9947C10.0005 40.0423 4.96523 40.1668 0 39.2959L11.0092 45.8459L22.0183 52.3962L33.0236 45.8459L44.0328 39.2959C42.2804 34.4273 39.6595 29.9963 36.3611 26.2034C30.5975 32.85 22.9996 37.2327 14.8451 38.9947H14.8373Z" fill="white"/>
<path fill-rule="evenodd" clip-rule="evenodd" d="M0 13.1043L0 39.3051C4.96522 40.1759 10.0005 40.0475 14.8373 39.004C12.1346 30.5353 12.2515 21.565 14.8451 13.4013C16.3872 8.56085 18.7978 4.00542 22.0105 0.00787354L11.0014 6.55807L0 13.1043Z" fill="white"/>
<path opacity="0.3" fill-rule="evenodd" clip-rule="evenodd" d="M6.07168 22.8133C4.6308 28.348 4.31147 34.1798 5.15262 39.847C8.41608 39.9714 11.6678 39.6825 14.8377 38.9962C12.1351 30.5274 12.2519 21.5571 14.8456 13.3934C16.3877 8.553 18.7983 3.99754 22.0111 0C13.911 5.39026 8.4628 13.6221 6.07168 22.8133Z" fill="white"/>
</svg>
