<svg width="244" height="27" viewBox="0 0 244 27" fill="none" xmlns="http://www.w3.org/2000/svg">
<path d="M39.9892 13.8906L41.732 12.1006H36.6924V13.8906H39.9892ZM42.9088 6.54852H33.4954V19.6479H42.9088V17.6984H35.5488V8.49808H42.9088V6.54852Z" fill="white"/>
<path d="M145.215 13.8906L146.957 12.1006H141.918V13.8906H145.215ZM148.134 6.54852H138.721V19.6479H148.134V17.6984H140.775V8.49808H148.134V6.54852Z" fill="white"/>
<path d="M49.2029 6.07849H51.4162L51.6006 6.17318L55.0131 10.7197L58.4254 6.17318L58.6099 6.07849H60.8234L60.9154 6.17318L56.2121 12.33L61.4686 19.2445L61.377 19.3393H59.1634L58.9787 19.2445L55.0131 13.9402L51.0473 19.2445L50.8629 19.3393H48.6493L48.5571 19.2445L53.8142 12.33L49.1104 6.17318L49.2029 6.07849Z" fill="white"/>
<path d="M67.2722 6.07849H77.3249L77.4174 6.17318L70.1312 17.4448H77.4174L77.5091 17.5585V19.2445L77.4174 19.3393H66.7189L66.6265 19.2445L73.9126 7.97289H67.2722L67.18 7.87814V6.17318L67.2722 6.07849Z" fill="white"/>
<path d="M90.8903 5.79596C94.6533 5.79596 97.7154 8.90274 97.7154 12.7105C97.7154 16.5182 94.6533 19.6251 90.8903 19.6251C87.1273 19.6251 84.0654 16.5182 84.0654 12.7105C84.0654 8.90274 87.1273 5.79596 90.8903 5.79596ZM90.8903 7.78505C88.2895 7.78505 86.1865 9.98254 86.1865 12.7105C86.1865 15.4384 88.2895 17.6359 90.8903 17.6359C93.4914 17.6359 95.5938 15.4384 95.5938 12.7105C95.5938 9.98254 93.4914 7.78505 90.8903 7.78505Z" fill="white"/>
<path d="M202.494 5.79596C206.257 5.79596 209.318 8.90274 209.318 12.7105C209.318 16.5182 206.257 19.6251 202.494 19.6251C198.731 19.6251 195.669 16.5182 195.669 12.7105C195.669 8.90274 198.731 5.79596 202.494 5.79596ZM202.494 7.78505C199.893 7.78505 197.79 9.98254 197.79 12.7105C197.79 15.4384 199.893 17.6359 202.494 17.6359C205.094 17.6359 207.197 15.4384 207.197 12.7105C207.197 9.98254 205.094 7.78505 202.494 7.78505Z" fill="white"/>
<path d="M233.578 6.07849H235.238L235.331 6.17318V10.7197L240.587 6.17318L240.772 6.07849H243.17L243.262 6.17318L236.714 11.7617L244 19.2445L243.908 19.3393H241.51L241.325 19.2445L235.331 12.993V19.2445L235.238 19.3393H233.578L233.486 19.2445V6.17318L233.578 6.07849Z" fill="white"/>
<path d="M155.307 6.07849H165.452L165.545 6.17318V7.87814L165.452 7.97289H161.302V19.2445L161.21 19.3393H159.55L159.458 19.2445V7.97289H155.307L155.215 7.87814V6.17318L155.307 6.07849Z" fill="white"/>
<path d="M171.945 6.07849H173.789L173.882 6.17318L176.833 16.2135L179.692 6.36265L179.784 6.26793H181.629L181.721 6.36265L184.58 16.2135L187.531 6.17318L187.623 6.07849H189.468L189.56 6.17318L185.595 19.2445L185.502 19.3393H183.75L183.658 19.2445L180.706 9.48839L177.755 19.2445L177.663 19.3393H175.91L175.818 19.2445L171.852 6.17318L171.945 6.07849Z" fill="white"/>
<path d="M127.589 17.1904L119.364 6.54852H117.461V19.6479H119.364V9.01754L127.589 19.6479H129.481V6.54852H127.589V17.1904Z" fill="white"/>
<path d="M225.129 13.6638C225.289 13.5344 225.427 13.3933 225.541 13.2639C226.171 12.5348 226.515 11.5586 226.515 10.5354C226.515 8.54783 225.175 6.54852 222.598 6.54852H215.247V20.0381H217.204V8.21855H222.598C224.179 8.21855 224.877 9.38287 224.877 10.5236C224.877 11.1352 224.671 11.7233 224.316 12.1349C223.938 12.57 223.411 12.817 222.747 12.8406H220.709H217.766V14.5106H221.682L224.9 20.0146H226.939L223.652 14.3812C224.293 14.2283 224.774 13.9461 225.129 13.6403V13.6638Z" fill="white"/>
<path opacity="0.1" fill-rule="evenodd" clip-rule="evenodd" d="M10.2548 19.841C9.1761 19.841 8.13241 19.6905 7.14136 19.4075C7.25815 20.6618 7.49183 21.9059 7.84231 23.1241C11.464 22.2271 14.7605 20.2744 17.3249 17.489L17.2704 17.4308C15.3154 18.9439 12.8873 19.841 10.2529 19.841H10.2548Z" fill="white"/>
<path opacity="0.3" fill-rule="evenodd" clip-rule="evenodd" d="M9.33472 2.42198C9.34648 2.40152 9.36008 2.38106 9.37175 2.3606L9.33472 2.42198Z" fill="white"/>
<path fill-rule="evenodd" clip-rule="evenodd" d="M16.5101 3.27508L11.0074 0C9.40102 1.99877 8.19378 4.2765 7.42468 6.69668C11.6577 7.60779 15.3982 9.90154 18.1787 13.1024C19.828 15.0008 21.1384 17.2164 22.0146 19.6486V6.55022H22.0127L16.512 3.27508H16.5101Z" fill="white"/>
<path fill-rule="evenodd" clip-rule="evenodd" d="M7.41865 19.4973C5.00027 20.0212 2.48261 20.0834 0 19.6479L5.50458 22.923L11.0092 26.1981L16.5118 22.923L22.0164 19.6479C21.1402 17.2136 19.8298 14.9982 18.1805 13.1017C15.2987 16.425 11.4998 18.6164 7.42254 19.4973H7.41865Z" fill="white"/>
<path fill-rule="evenodd" clip-rule="evenodd" d="M0 6.55213L0 19.6525C2.48261 20.0879 5.00027 20.0237 7.41865 19.502C6.0673 15.2676 6.12574 10.7824 7.42254 6.70063C8.19358 4.2804 9.39888 2.00268 11.0053 0.00390625L5.50069 3.27901L0 6.55213Z" fill="white"/>
<path opacity="0.3" fill-rule="evenodd" clip-rule="evenodd" d="M3.03578 11.4067C2.31534 14.174 2.15567 17.0899 2.57625 19.9235C4.20798 19.9857 5.83384 19.8412 7.41879 19.4981C6.0675 15.2637 6.12588 10.7786 7.42274 6.69668C8.19381 4.2765 9.39908 1.99877 11.0055 0C6.95542 2.69513 4.23134 6.81107 3.03578 11.4067Z" fill="white"/>
</svg>
